<?xml version="1.0" encoding="UTF-8"?>
<!DOCTYPE svg PUBLIC "-//W3C//DTD SVG 1.1//EN" "http://www.w3.org/Graphics/SVG/1.1/DTD/svg11.dtd">
<!-- Creator: CorelDRAW 2021 (64-Bit) -->
<svg xmlns="http://www.w3.org/2000/svg" xml:space="preserve" width="5.82677in" height="5.82677in" version="1.1" shape-rendering="geometricPrecision" text-rendering="geometricPrecision" image-rendering="optimizeQuality" fill-rule="evenodd" clip-rule="evenodd"
viewBox="0 0 5826.77 5826.77"
 xmlns:xlink="http://www.w3.org/1999/xlink"
 xmlns:xodm="http://www.corel.com/coreldraw/odm/2003">
 <g id="Layer_x0020_1">
  <metadata id="CorelCorpID_0Corel-Layer"/>
  <g id="_2719600124320">
   <path fill="#CCCCFF" d="M2910.1 4303.78c-705.78,0 -1356.66,235.66 -1878.07,632.51 521.52,396.85 1172.29,632.39 1878.07,632.39 705.78,0 1356.67,-235.66 1878.07,-632.51 -521.53,-396.85 -1172.29,-632.39 -1878.07,-632.39z"/>
   <path fill="#1A68E8" d="M2910.1 264.65c718.63,0 1301.3,582.67 1301.3,1301.29 0,718.63 -582.67,1301.3 -1301.3,1301.3 -718.63,0 -1301.29,-582.67 -1301.29,-1301.3 0,-718.63 582.67,-1301.29 1301.29,-1301.29zm0 676.47c345.08,0 624.82,279.74 624.82,624.82 0,345.08 -279.74,624.82 -624.82,624.82 -345.08,0 -624.82,-279.74 -624.82,-624.82 0,-345.08 279.74,-624.82 624.82,-624.82z"/>
   <path fill="#1A68E8" d="M5358.58 4372.72c-692.69,-487.54 -1537.07,-773.88 -2448.48,-773.88 -911.41,0 -1755.8,286.35 -2448.48,773.88 165.04,211.52 356.97,401.06 570.41,563.57 107.74,81.91 220.89,156.98 338.83,224.49 453.66,-259.56 979.15,-407.9 1539.23,-407.9 560.08,0 1085.45,148.34 1539.11,407.9 118.07,-67.5 231.33,-142.57 338.96,-224.61 213.56,-162.51 405.38,-351.93 570.41,-563.44z"/>
  </g>
 </g>
</svg>
